<svg width="15" height="15" viewBox="0 0 15 15" fill="none" xmlns="http://www.w3.org/2000/svg">
<path d="M11.4722 2.67773C10.9861 2.67773 10.5917 3.07218 10.5917 3.55829C10.5917 4.0444 10.9861 4.43885 11.4722 4.43885C11.9583 4.43885 12.3528 4.0444 12.3528 3.55829C12.35 3.07218 11.9583 2.67773 11.4722 2.67773Z" fill="#183442"/>
<path d="M7.56111 3.80566C5.525 3.80566 3.86667 5.464 3.86667 7.50011C3.86667 9.53622 5.525 11.1946 7.56111 11.1946C9.59722 11.1946 11.2556 9.53622 11.2556 7.50011C11.2556 5.464 9.6 3.80566 7.56111 3.80566ZM7.56111 9.86677C6.25556 9.86677 5.19445 8.80566 5.19445 7.50011C5.19445 6.19455 6.25556 5.13344 7.56111 5.13344C8.86667 5.13344 9.92778 6.19455 9.92778 7.50011C9.92778 8.80566 8.86667 9.86677 7.56111 9.86677Z" fill="#183442"/>
<path d="M10.4944 15H4.50556C2.02222 15 0 12.9806 0 10.4944V4.50556C0 2.02222 2.02222 0 4.50556 0H10.4944C12.9778 0 15 2.02222 15 4.50556V10.4944C15 12.9806 12.9778 15 10.4944 15ZM4.50556 1.41111C2.8 1.41111 1.41111 2.8 1.41111 4.50556V10.4944C1.41111 12.2 2.8 13.5889 4.50556 13.5889H10.4944C12.2 13.5889 13.5889 12.2 13.5889 10.4944V4.50556C13.5889 2.8 12.2 1.41111 10.4944 1.41111H4.50556Z" fill="#183442"/>
</svg>
