<svg width="14" height="14" viewBox="0 0 14 14" fill="none" xmlns="http://www.w3.org/2000/svg">
<path d="M0 14L1.00575 10.2537C0.436607 9.22963 0.13514 8.07852 0.13514 6.91444C0.137739 3.10333 3.24596 0 7.06887 0C10.8892 0 14 3.10333 14 6.91444C14 10.7281 10.8918 13.8289 7.06887 13.8289C5.92018 13.8289 4.78708 13.5411 3.77353 12.9915L0 14ZM3.96065 11.5889L4.19714 11.7315C5.07035 12.25 6.06312 12.5248 7.06627 12.5248C10.1667 12.5248 12.6876 10.01 12.6876 6.91704C12.6876 3.82407 10.1667 1.30926 7.06627 1.30926C3.96584 1.30926 1.44496 3.82407 1.44496 6.91704C1.44496 7.93852 1.72823 8.94444 2.2662 9.82333L2.41173 10.0619L1.85038 12.1515L3.96065 11.5889Z" fill="#183442"/>
<path fill-rule="evenodd" clip-rule="evenodd" d="M9.64692 7.87671C9.36105 7.7056 8.98942 7.51634 8.65416 7.65374C8.39688 7.76004 8.23055 8.16189 8.06423 8.36671C7.97846 8.473 7.87711 8.48856 7.74457 8.43671C6.77779 8.053 6.03452 7.40745 5.50176 6.51819C5.4108 6.38078 5.42639 6.27189 5.53554 6.14226C5.69667 5.953 5.89938 5.73782 5.94356 5.48115C5.98774 5.22708 5.8682 4.92634 5.76164 4.70078C5.6265 4.41041 5.47577 3.99559 5.1847 3.83226C4.91702 3.68189 4.56357 3.76485 4.32448 3.9593C3.91126 4.29374 3.71375 4.82004 3.71895 5.34115C3.72155 5.48893 3.73974 5.63671 3.77352 5.7793C3.85669 6.12152 4.01522 6.443 4.19454 6.74893C4.32968 6.97967 4.47521 7.20263 4.63374 7.41523C5.15091 8.11782 5.79543 8.72708 6.5413 9.18337C6.91293 9.41152 7.31576 9.61115 7.73157 9.74856C8.19677 9.90152 8.61258 10.0623 9.11676 9.96634C9.64433 9.86782 10.1641 9.54115 10.372 9.0356C10.4344 8.88522 10.4656 8.7193 10.4292 8.56115C10.3564 8.2293 9.91201 8.03485 9.64692 7.87671Z" fill="#183442"/>
</svg>
