<svg width="24" height="20" viewBox="0 0 24 20" fill="none" xmlns="http://www.w3.org/2000/svg">
<path d="M23.9012 2.39662C23.1404 2.74476 22.2954 2.95588 21.4723 3.09662C21.8637 3.02995 22.4344 2.31513 22.6648 2.02625C23.016 1.58551 23.305 1.0818 23.4696 0.537357C23.4915 0.496616 23.5062 0.441061 23.4659 0.411431C23.4147 0.389209 23.3781 0.40032 23.3379 0.422542C22.4198 0.922542 21.4723 1.2818 20.4591 1.53736C20.3749 1.55958 20.3128 1.53736 20.2615 1.48551C20.1774 1.38921 20.1006 1.30032 20.0091 1.22625C19.5848 0.859579 19.1276 0.574394 18.6155 0.359579C17.9424 0.0818015 17.2035 -0.0367171 16.4792 0.0114311C15.7732 0.0595792 15.0782 0.259579 14.4527 0.592913C13.8235 0.926246 13.2638 1.38921 12.8176 1.94476C12.3567 2.52254 12.0165 3.20402 11.8409 3.92625C11.6726 4.62254 11.6872 5.31514 11.7897 6.01884C11.8043 6.13736 11.7933 6.15217 11.6909 6.13736C7.73297 5.54106 4.45908 4.10773 1.79973 1.03736C1.68267 0.904024 1.62048 0.904024 1.52538 1.04847C0.36214 2.81513 0.925469 5.65217 2.38134 7.04847C2.57522 7.23365 2.77275 7.41884 2.98857 7.58921C2.91175 7.60402 1.94239 7.50032 1.0791 7.04847C0.962049 6.97439 0.907179 7.01514 0.896205 7.14847C0.885231 7.34106 0.903521 7.51514 0.929127 7.72254C1.15226 9.51143 2.37769 11.1707 4.05304 11.8151C4.25057 11.9003 4.47371 11.9744 4.68587 12.0114C4.30544 12.0966 3.91038 12.1559 2.81299 12.0707C2.67764 12.0448 2.62277 12.1151 2.67764 12.2448C3.50069 14.5188 5.27846 15.1929 6.60997 15.5781C6.78921 15.6114 6.96479 15.6114 7.14403 15.6522C7.13306 15.667 7.12209 15.667 7.11111 15.6855C6.6685 16.367 5.13946 16.8744 4.42615 17.1262C3.13123 17.5855 1.71925 17.7929 0.347508 17.6559C0.128029 17.6225 0.0804756 17.6262 0.0219479 17.6559C-0.0365798 17.6929 0.0146319 17.7485 0.0841336 17.804C0.36214 17.9892 0.643804 18.1559 0.932785 18.3151C1.80338 18.7818 2.71056 19.1559 3.65798 19.4188C8.55601 20.7892 14.0759 19.7818 17.7558 16.0818C20.6456 13.1744 21.6589 9.16699 21.6589 5.15588C21.6589 5.00032 21.8418 4.91143 21.9515 4.82995C22.7051 4.25958 23.3086 3.57439 23.872 2.81143C23.9963 2.64106 24 2.48921 24 2.42625C24 2.41513 24 2.40402 24 2.40402C24 2.33365 24 2.35217 23.9012 2.39662Z" fill="#F6A451"/>
</svg>
